<svg width="80" height="93" viewBox="0 0 80 93" fill="none" xmlns="http://www.w3.org/2000/svg">
    <path d="M38.8203 50.2342H31.4539V48.8281L35.1844 45.1711C36.2442 44.0955 36.7899 43.4554 36.7899 42.5582C36.7899 41.5456 36.0291 40.9213 35.006 40.9213C33.9356 40.9213 33.2431 41.6086 33.2431 42.7052H31.391C31.391 40.6642 32.902 39.342 35.0322 39.342C37.1939 39.342 38.6577 40.6589 38.6577 42.4586C38.6577 43.6705 38.0806 44.6464 35.9924 46.6507L34.1403 48.5343V48.6077H38.8203V50.2342Z" fill="white"/>
    <path fill-rule="evenodd" clip-rule="evenodd" d="M48.7419 44.872C48.7419 48.3978 47.1941 50.4441 44.6022 50.4388C42.0103 50.4388 40.4626 48.3926 40.4626 44.872C40.4678 41.362 42.0208 39.342 44.6022 39.342C47.1836 39.342 48.7419 41.3672 48.7419 44.872ZM42.4301 44.872C42.4248 47.4534 43.2643 48.7966 44.6022 48.7966C45.9454 48.7966 46.7796 47.4534 46.7796 44.872C46.7744 42.3116 45.9401 40.9632 44.6022 40.9632C43.2696 40.9632 42.4353 42.3116 42.4301 44.872Z" fill="white"/>
    <path fill-rule="evenodd" clip-rule="evenodd" d="M40.0146 92.3423L0.202448 69.3567L0 69.3422L0.0382452 69.2619L0.0292502 69.2567V23.0856L40.0146 0L80 23.0856V69.2567L40.0146 92.3423ZM37.5976 3.52804L2.8748 23.5752L17.7511 32.1577L37.5976 3.52804ZM39.0912 72.1478L4.42048 69.6594L39.0912 89.6766V72.1478ZM40.938 72.0897V89.6766L75.8036 69.547L40.9588 72.0538L40.938 72.0897ZM78.1532 25.1764V65.5191L62.9991 33.8788L63.0462 33.7972L78.1532 25.1764ZM42.0742 70.1219L61.8799 35.8174L77.1029 67.6019L42.0742 70.1219ZM18.0775 35.693L38.0109 70.2186L2.83111 67.6938L18.0775 35.693ZM1.8761 25.1312L16.9269 33.8144L1.8761 65.4044V25.1312ZM77.1934 23.5977L42.4317 3.52804L62.2541 32.1229L77.1934 23.5977ZM60.2074 32.4121L40.0146 3.28301L19.8219 32.4121H60.2074ZM40.0146 69.9954L60.6471 34.259H19.3822L40.0146 69.9954Z" fill="white"/>
</svg>
